<?xml version="1.0" encoding="UTF-8" standalone="no"?>
<!-- Created with Inkscape (http://www.inkscape.org/) -->

<svg
   width="5.6259308mm"
   height="6.4398193mm"
   viewBox="0 0 5.6259308 6.4398193"
   version="1.1"
   id="svg1392"
   inkscape:export-filename="trash_off.svg"
   inkscape:export-xdpi="96"
   inkscape:export-ydpi="96"
   xmlns:inkscape="http://www.inkscape.org/namespaces/inkscape"
   xmlns:sodipodi="http://sodipodi.sourceforge.net/DTD/sodipodi-0.dtd"
   xmlns="http://www.w3.org/2000/svg"
   xmlns:svg="http://www.w3.org/2000/svg">
  <sodipodi:namedview
     id="namedview1394"
     pagecolor="#ffffff"
     bordercolor="#000000"
     borderopacity="0.25"
     inkscape:showpageshadow="2"
     inkscape:pageopacity="0.0"
     inkscape:pagecheckerboard="0"
     inkscape:deskcolor="#d1d1d1"
     inkscape:document-units="mm"
     showgrid="false" />
  <defs
     id="defs1389" />
  <g
     inkscape:label="Layer 1"
     inkscape:groupmode="layer"
     id="layer1"
     transform="translate(-173.33535,-107.84137)">
    <path
       style="fill:#000000;stroke-width:0.0107364"
       d="m 174.39747,114.27302 c -0.18125,-0.0307 -0.34355,-0.12178 -0.46771,-0.26232 -0.0731,-0.0827 -0.128,-0.17987 -0.16692,-0.29525 -0.019,-0.0563 -0.0202,-0.1422 -0.0253,-1.85726 l -0.005,-1.7982 -0.0577,-0.008 c -0.0318,-0.005 -0.079,-0.0177 -0.10499,-0.0292 -0.0719,-0.0318 -0.16756,-0.12921 -0.2037,-0.20744 l -0.0308,-0.0667 v -0.31136 -0.31136 l 0.0297,-0.0805 c 0.0632,-0.17119 0.19518,-0.29817 0.38312,-0.36851 0.0551,-0.0206 0.087,-0.0226 0.42729,-0.0263 l 0.36772,-0.004 2.8e-4,-0.15761 c 2.4e-4,-0.13453 0.004,-0.16793 0.0243,-0.22802 0.0701,-0.20552 0.23922,-0.35917 0.44248,-0.40192 0.11204,-0.0236 2.16408,-0.0236 2.27612,0 0.11223,0.0236 0.2029,0.0739 0.28994,0.16094 0.13629,0.13623 0.1771,0.24686 0.1771,0.48006 v 0.14805 h 0.33136 c 0.18225,0 0.35514,0.005 0.38419,0.01 0.21665,0.0411 0.39239,0.19114 0.46753,0.39918 0.0237,0.0657 0.0248,0.0817 0.0248,0.37993 v 0.31136 l -0.0308,0.0667 c -0.0361,0.0782 -0.13178,0.17563 -0.2037,0.20744 -0.026,0.0115 -0.0732,0.0246 -0.10499,0.0292 l -0.0577,0.008 -0.005,1.7982 c -0.005,1.71224 -0.006,1.80103 -0.0252,1.85726 -0.0876,0.26079 -0.28345,0.45597 -0.53833,0.53648 l -0.086,0.0272 -1.72857,0.002 c -0.95071,8.5e-4 -1.75289,-0.003 -1.78262,-0.008 z m 3.41225,-0.39675 c 0.13659,-0.0198 0.25273,-0.10502 0.31441,-0.23084 l 0.0315,-0.0642 0.003,-1.76346 0.003,-1.76346 h -2.01339 -2.01339 l 0.003,1.76346 0.003,1.76346 0.0316,0.0643 c 0.0597,0.1216 0.17893,0.21171 0.30449,0.23012 0.0888,0.013 3.24368,0.0136 3.3335,6.3e-4 z m -3.1542,-0.41732 c -0.0497,-0.0229 -0.085,-0.0582 -0.10128,-0.10119 -0.008,-0.0208 -0.0115,-0.45431 -0.0115,-1.39479 v -1.36457 l 0.0267,-0.0455 c 0.018,-0.0307 0.0422,-0.053 0.0743,-0.0686 0.0453,-0.0219 0.0601,-0.0229 0.30965,-0.0198 0.25894,0.003 0.2625,0.004 0.30091,0.0299 0.0214,0.0147 0.0488,0.0443 0.0609,0.0659 0.0219,0.039 0.022,0.0473 0.022,1.40328 0,0.94011 -0.004,1.37344 -0.0114,1.39427 -0.0163,0.043 -0.0516,0.0783 -0.10128,0.10119 -0.0377,0.0174 -0.0723,0.0198 -0.28452,0.0198 -0.21219,0 -0.24679,-0.002 -0.28451,-0.0198 z m 0.48586,-1.49086 -0.003,-1.30716 h -0.19863 -0.19862 l -0.003,1.30716 -0.003,1.30716 h 0.20408 0.20408 z m 0.71662,1.49124 c -0.0512,-0.0238 -0.074,-0.0478 -0.0962,-0.10092 -0.0146,-0.0349 -0.0165,-0.19874 -0.0165,-1.38763 0,-1.18889 0.002,-1.35278 0.0165,-1.38764 0.0222,-0.0532 0.0451,-0.0772 0.0962,-0.10064 0.0377,-0.0173 0.073,-0.0197 0.28988,-0.0197 0.21688,0 0.25217,0.002 0.28988,0.0197 0.0511,0.0235 0.074,0.0474 0.0962,0.10064 0.0146,0.0349 0.0165,0.19891 0.0165,1.38927 v 1.34975 l -0.0228,0.047 c -0.0137,0.0283 -0.0401,0.0585 -0.0663,0.0759 l -0.0435,0.0288 -0.25849,0.003 c -0.23313,0.002 -0.2627,7.7e-4 -0.30143,-0.0173 z m 0.4885,-1.49392 v -1.30985 h -0.19862 -0.19862 v 1.30985 1.30984 h 0.19862 0.19862 z m 0.74619,1.50613 c -0.0328,-0.008 -0.0907,-0.0553 -0.11361,-0.0928 -0.0199,-0.0327 -0.0205,-0.0739 -0.0206,-1.40697 l -4e-5,-1.37332 0.0267,-0.0455 c 0.018,-0.0307 0.0422,-0.053 0.0743,-0.0686 0.0453,-0.0219 0.0601,-0.0229 0.30964,-0.0198 0.25895,0.003 0.2625,0.004 0.30092,0.0299 0.0214,0.0147 0.0488,0.0443 0.0609,0.0659 0.0219,0.039 0.0221,0.0473 0.0221,1.40328 0,0.94011 -0.004,1.37344 -0.0115,1.39427 -0.0163,0.043 -0.0516,0.0783 -0.10129,0.10119 -0.038,0.0175 -0.071,0.0197 -0.28451,0.0188 -0.13286,-5.5e-4 -0.25123,-0.003 -0.26304,-0.006 z m 0.46439,-1.50345 -0.003,-1.30716 h -0.19862 -0.19862 l -0.003,1.30716 -0.003,1.30716 h 0.20408 0.20408 z m 1.00635,-2.54185 c -1.3e-4,-0.19869 -0.003,-0.23031 -0.0203,-0.26633 -0.0273,-0.0553 -0.0773,-0.0911 -0.14569,-0.10402 -0.0782,-0.0148 -4.42087,-0.0148 -4.49911,0 -0.0684,0.013 -0.11853,0.0488 -0.14552,0.10402 -0.0169,0.0346 -0.0206,0.0736 -0.0241,0.25298 -0.002,0.11667 -0.001,0.21934 0.002,0.22818 0.005,0.0142 0.28571,0.0157 2.41951,0.0133 l 2.41334,-0.003 -1.5e-4,-0.22547 z m -1.20776,-0.8938 c -3e-5,-0.0635 -0.005,-0.13306 -0.011,-0.15463 -0.0124,-0.0445 -0.0801,-0.11154 -0.12561,-0.12425 -0.0389,-0.0109 -2.10353,-0.0109 -2.14246,0 -0.0455,0.0127 -0.11324,0.0797 -0.12561,0.12425 -0.006,0.0216 -0.0109,0.0911 -0.011,0.15463 l -6e-5,0.11541 h 1.20785 1.20785 l -7e-5,-0.11541 z"
       id="path6034" />
  </g>
</svg>
