<?xml version="1.0" encoding="UTF-8" standalone="no"?>
<!-- Created with Inkscape (http://www.inkscape.org/) -->

<svg
   width="5.7902374mm"
   height="7.737999mm"
   viewBox="0 0 5.7902374 7.737999"
   version="1.1"
   id="svg1392"
   inkscape:export-filename="trash_off.svg"
   inkscape:export-xdpi="96"
   inkscape:export-ydpi="96"
   xmlns:inkscape="http://www.inkscape.org/namespaces/inkscape"
   xmlns:sodipodi="http://sodipodi.sourceforge.net/DTD/sodipodi-0.dtd"
   xmlns="http://www.w3.org/2000/svg"
   xmlns:svg="http://www.w3.org/2000/svg">
  <sodipodi:namedview
     id="namedview1394"
     pagecolor="#ffffff"
     bordercolor="#000000"
     borderopacity="0.25"
     inkscape:showpageshadow="2"
     inkscape:pageopacity="0.0"
     inkscape:pagecheckerboard="0"
     inkscape:deskcolor="#d1d1d1"
     inkscape:document-units="mm"
     showgrid="false" />
  <defs
     id="defs1389" />
  <g
     inkscape:label="Layer 1"
     inkscape:groupmode="layer"
     id="layer1"
     transform="translate(-163.62375,-101.24811)">
    <path
       style="fill:#000000;stroke-width:0.0393776"
       d="m 164.39323,108.94394 c -0.009,-0.0273 -0.16003,-1.30768 -0.33623,-2.84538 -0.17619,-1.53769 -0.3303,-2.86226 -0.34246,-2.94347 l -0.0221,-0.14767 h 2.82088 2.82087 l -0.0267,0.22642 c -0.0147,0.12453 -0.16111,1.46682 -0.32538,2.98286 l -0.29867,2.75643 -2.13716,0.0102 c -1.69005,0.008 -2.14049,-1.9e-4 -2.15303,-0.0394 z m 1.02399,-0.67782 c 0.0532,-0.0532 0.0968,-0.11961 0.0969,-0.14766 1.2e-4,-0.0281 -0.0899,-0.99903 -0.20013,-2.15772 -0.13331,-1.40163 -0.21829,-2.13473 -0.25393,-2.19046 -0.14538,-0.22736 -0.46207,-0.11414 -0.48349,0.17285 -0.0101,0.13581 0.30117,3.59628 0.36844,4.09561 0.0407,0.30198 0.28162,0.41799 0.47222,0.22738 z m 1.27798,0.0179 c 0.0769,-0.0769 0.0788,-0.13126 0.0788,-2.266 v -2.18725 l -0.0966,-0.0966 c -0.11808,-0.11808 -0.21463,-0.12222 -0.35088,-0.015 l -0.10376,0.0816 v 2.18991 2.1899 l 0.0856,0.0911 c 0.10618,0.11302 0.28069,0.11861 0.38691,0.0124 z m 1.31569,-0.01 0.0994,-0.0886 0.15983,-2.16124 c 0.14363,-1.94223 0.15384,-2.17038 0.10076,-2.25138 -0.13454,-0.20534 -0.42769,-0.14843 -0.49264,0.0956 -0.0349,0.13104 -0.31851,3.86515 -0.31725,4.17663 6.5e-4,0.16027 0.13001,0.31756 0.26117,0.31756 0.0492,0 0.13411,-0.0399 0.18876,-0.0886 z m -4.13559,-5.34324 c -0.11819,-0.0499 -0.25155,-0.23238 -0.25155,-0.34425 0,-0.14675 0.10282,-0.31172 0.22456,-0.36031 0.0606,-0.0242 0.38481,-0.0888 0.7205,-0.14372 0.3357,-0.0549 0.64914,-0.10852 0.69653,-0.11924 0.0537,-0.0122 0.12786,-0.0972 0.19689,-0.22598 l 0.11071,-0.2065 0.82693,-0.14134 0.82693,-0.14133 0.22507,0.15584 0.22507,0.15585 0.69054,-0.12081 c 0.5357,-0.0937 0.71642,-0.11179 0.80599,-0.0806 0.25157,0.0877 0.32355,0.42944 0.1305,0.61962 -0.10403,0.10249 -0.20737,0.12344 -2.62845,0.5329 -3.01142,0.50931 -2.69915,0.46249 -2.80022,0.41984 z"
       id="path5975" />
  </g>
</svg>
